<?xml version="1.0" encoding="iso-8859-1"?>
<!-- Uploaded to: SVG Repo, www.svgrepo.com, Generator: SVG Repo Mixer Tools -->
<svg height="800px" width="800px" version="1.1" id="Layer_1" xmlns="http://www.w3.org/2000/svg" xmlns:xlink="http://www.w3.org/1999/xlink" 
	 viewBox="0 0 512 512" xml:space="preserve">
<path style="fill:#E04C00;" d="M256.001,185.027L235.722,256l20.278,70.973c39.135,0,70.973-31.839,70.973-70.973
	S295.134,185.027,256.001,185.027z"/>
<path style="fill:#FF7D3C;" d="M256.001,185.027c-39.135,0-70.973,31.839-70.973,70.973s31.839,70.973,70.973,70.973V185.027z"/>
<path style="fill:#E04C00;" d="M511.999,315.659V196.341h-47.416c-4.534-15.894-10.867-31.172-18.918-45.636l33.539-33.539
	l-84.37-84.37l-33.539,33.54c-14.467-8.053-29.741-14.385-45.636-18.919V0H256l-20.278,47.247L256,90.04
	c91.511,0,165.96,74.449,165.96,165.96s-74.449,165.96-165.96,165.96l-20.278,47.974L255.999,512h59.659v-47.416
	c15.895-4.534,31.168-10.866,45.636-18.919l33.539,33.54l84.37-84.37l-33.539-33.539c8.051-14.464,14.385-29.741,18.918-45.636
	H511.999z"/>
<g>
	<path style="fill:#FF7D3C;" d="M256.001,512v-90.04c-91.511,0-165.96-74.449-165.96-165.96s74.449-165.96,165.96-165.96V0h-59.659
		v47.416c-15.895,4.534-31.168,10.866-45.636,18.919l-33.539-33.54l-84.37,84.37l33.539,33.539
		c-8.051,14.464-14.385,29.741-18.918,45.636H0.001v119.318h47.416c4.534,15.894,10.867,31.172,18.918,45.636l-33.539,33.539
		l84.37,84.37l33.539-33.54c14.467,8.053,29.741,14.385,45.636,18.919V512H256.001z"/>
	<path style="fill:#FF7D3C;" d="M256.001,120.457l-10.139,15.842l10.139,18.309c55.908,0,101.391,45.484,101.391,101.391
		s-45.483,101.391-101.391,101.391l-10.139,15.885l10.139,18.268c74.739,0,135.543-60.804,135.543-135.543
		S330.74,120.457,256.001,120.457z"/>
</g>
<path style="fill:#FFB995;" d="M256.001,357.391c-55.908,0-101.391-45.484-101.391-101.391s45.483-101.391,101.391-101.391v-34.152
	c-74.739,0-135.543,60.804-135.543,135.543s60.804,135.543,135.543,135.543V357.391z"/>
</svg>